<svg xmlns="http://www.w3.org/2000/svg" viewBox="0 0 128 128"><path fill="#fff" d="M13.13 84.13v4.12c33.91 29.5 67.83 29.5 101.75 0v-4.13Zm0 0"/><path fill="#478cbf" d="m13.13 84.13 19 1.75c1 .08 1.62.66 1.87 1.75l.5 8.37L51 97.25l1-7.63c.17-.91.8-1.54 1.88-1.87h20.24c1.09.33 1.71.96 1.88 1.88l1 7.62L93.5 96l.5-8.38c.25-1.08.88-1.66 1.88-1.75l19-1.75V53.38a121.7 121.7 0 0 0 7-10.12 70.93 70.93 0 0 0-10.38-13.5c-3.58 1.67-7 3.63-10.25 5.88-3.33-3.09-7-5.76-11-8 .58-4.25.92-8.5 1-12.75a71.45 71.45 0 0 0-15.38-5.26 93.63 93.63 0 0 0-5.75 11.13 43.19 43.19 0 0 0-12.25 0 93.63 93.63 0 0 0-5.74-11.13 71.45 71.45 0 0 0-15.38 5.26c.08 4.24.42 8.5 1 12.74-4 2.25-7.67 4.92-11 8a69.56 69.56 0 0 0-10.25-5.87c-4 4.08-7.46 8.58-10.38 13.5 2.17 3.5 4.5 6.88 7 10.13Zm0 4.12v4.88c0 34.5 101.62 34.5 101.62 0v-4.88L98 89.75l-.63 8.63c-.16.83-.75 1.37-1.75 1.62l-20.25 1.38c-1 0-1.66-.46-2-1.38l-1.25-8.13H55.88L54.63 100c-.34.92-1 1.38-2 1.38L32.36 100c-1-.25-1.58-.8-1.74-1.63L30 89.75Zm0 0"/><path fill="#fff" d="M60.38 75c.37 4.25 6.87 4.25 7.24 0V64.25c-.37-4.25-6.87-4.25-7.25 0ZM101.88 65.75a11.25 11.25 0 1 1-22.5 0 11.25 11.25 0 0 1 22.5 0ZM48.63 65.75a11.25 11.25 0 1 1-22.5 0 11.25 11.25 0 0 1 22.5 0Zm0 0"/><path fill="#414042" d="M45.88 66.5a7.5 7.5 0 1 1-15 0 7.5 7.5 0 0 1 15 0ZM97.13 66.5a7.5 7.5 0 1 1-15 0 7.5 7.5 0 0 1 15 0Zm0 0"/></svg>