<svg xmlns="http://www.w3.org/2000/svg" viewBox="0 0 128 128"><path fill="#fff" d="m10 87.6 5.76-10.56 10.16-24.29 36.22-1.93 37.68 2.01 18.5 36.21-3.35 9.5-50.25 7.55-49.13-5.7Zm0 0"/><path fill="#478cbf" d="M114.4 86.1v7.25c0 .72-.43 1.35-1.08 1.57l-10.79 3.7c-.47.17-.99.07-1.39-.24-.4-.31-.64-.8-.64-1.33v-7.92l-10.1 2.03v8.07c0 .82-.58 1.52-1.35 1.63l-14.6 2.12-.2.02c-.38 0-.75-.14-1.03-.4a1.7 1.7 0 0 1-.53-1.25V92.8l-7.54.03h-1.1l-7.54-.03v8.54c0 .48-.2.93-.53 1.24-.29.27-.65.4-1.02.4h-.22l-14.6-2.13a1.62 1.62 0 0 1-1.34-1.63v-8.07l-10.1-2.03v7.92c0 .52-.24 1.02-.65 1.33-.4.31-.91.4-1.39.24l-10.79-3.7a1.64 1.64 0 0 1-1.07-1.57V86.1l-6.67-2.37c-.33 1.5-.5 3.02-.5 4.57 0 18.96 25.19 33.6 56.33 33.71h.08c31.14-.1 56.34-14.75 56.34-33.71 0-1.41-.15-2.8-.43-4.17Zm0 0"/><path fill="#478cbf" d="M13.09 52.46v29.55l3.75 1.34c.64.22 1.06.85 1.06 1.56v7.25l7.69 2.63v-7.65c0-.5.2-.96.56-1.27.36-.32.82-.44 1.28-.35l13.21 2.67c.73.15 1.27.83 1.27 1.61v8l11.5 1.66v-8.3c0-.45.16-.87.45-1.18.29-.3.68-.47 1.1-.47l9.64.04 9.63-.04c.43 0 .82.17 1.1.47.3.31.47.73.47 1.17v8.3l11.5-1.66V89.8c0-.78.52-1.46 1.25-1.61l13.22-2.67c.45-.1.92.03 1.28.35.35.31.56.77.56 1.27v7.65l7.68-2.63V84.9c0-.71.43-1.34 1.06-1.56l2.56-.92V52.46h.07c2.5-3.37 4.8-6.94 7.02-10.73a83.19 83.19 0 0 0-10.4-14.44 99.45 99.45 0 0 0-10.31 6.36c-1.64-1.73-3.49-3.15-5.3-4.62-1.78-1.52-3.8-2.63-5.7-3.93.57-4.48.85-8.89.96-13.5A63.7 63.7 0 0 0 75.8 6a118.29 118.29 0 0 0-5.74 11.85c-2-.35-4-.49-6.02-.51h-.08c-2.01.02-4.02.16-6.02.51-1.68-4-3.62-8.08-5.74-11.85a63.7 63.7 0 0 0-15.45 5.6c.1 4.61.4 9.02.96 13.5-1.9 1.3-3.92 2.41-5.7 3.93-1.81 1.47-3.66 2.89-5.3 4.62a99.45 99.45 0 0 0-10.32-6.36A83.19 83.19 0 0 0 6 41.73c2.21 3.8 4.52 7.36 7.02 10.73Zm0 0"/><path fill="#fff" d="M49.34 66.64c0 6.65-5.08 12.04-11.35 12.04-6.26 0-11.35-5.4-11.35-12.04 0-6.64 5.09-12.03 11.35-12.03 6.27 0 11.35 5.39 11.35 12.03"/><path fill="#414042" d="M46.6 67.36c0 4.4-3.36 7.98-7.52 7.98s-7.54-3.57-7.54-7.98c0-4.42 3.38-8 7.54-8s7.53 3.58 7.53 8"/><path fill="#fff" d="M64.69 79.77a3.59 3.59 0 0 1-3.65-3.52V65.17a3.59 3.59 0 0 1 3.65-3.52 3.6 3.6 0 0 1 3.65 3.52v11.08a3.6 3.6 0 0 1-3.65 3.52M80.04 66.64c0 6.65 5.08 12.04 11.35 12.04s11.34-5.4 11.34-12.04c0-6.64-5.07-12.03-11.34-12.03S80.04 60 80.04 66.64"/><path fill="#414042" d="M82.77 67.36c0 4.4 3.37 7.98 7.53 7.98s7.53-3.57 7.53-7.98c0-4.42-3.37-8-7.53-8s-7.53 3.58-7.53 8"/></svg>